<svg width="61" height="9" xmlns="http://www.w3.org/2000/svg"><rect x="0" y="0" width="61" height="9" fill="black" /><circle cx="19" cy="9" r="0.5" fill="red"/><circle cx="40" cy="9" r="0.5" fill="red"/><circle cx="52" cy="0" r="0.5" fill="red"/><circle cx="26" cy="9" r="0.5" fill="red"/><circle cx="13" cy="7" r="0.5" fill="red"/><circle cx="44" cy="4" r="0.5" fill="red"/><circle cx="24" cy="7" r="0.5" fill="red"/><circle cx="61" cy="1" r="0.5" fill="red"/><circle cx="13" cy="7" r="0.5" fill="red"/><circle cx="51" cy="4" r="0.5" fill="red"/><circle cx="0" cy="8" r="0.5" fill="red"/><circle cx="16" cy="1" r="0.5" fill="red"/><circle cx="53" cy="2" r="0.5" fill="red"/><circle cx="3" cy="5" r="0.5" fill="red"/><circle cx="18" cy="9" r="0.5" fill="red"/><circle cx="36" cy="1" r="0.5" fill="red"/><circle cx="28" cy="0" r="0.5" fill="red"/><circle cx="61" cy="1" r="0.5" fill="red"/><circle cx="59" cy="0" r="0.5" fill="red"/><circle cx="12" cy="9" r="0.5" fill="red"/><circle cx="33" cy="5" r="0.5" fill="red"/><circle cx="24" cy="0" r="0.5" fill="red"/><circle cx="51" cy="0" r="0.5" fill="red"/><circle cx="29" cy="9" r="0.5" fill="red"/><circle cx="56" cy="3" r="0.5" fill="red"/><circle cx="4" cy="7" r="0.5" fill="red"/><circle cx="3" cy="0" r="0.5" fill="red"/><circle cx="48" cy="2" r="0.5" fill="red"/><circle cx="11" cy="9" r="0.5" fill="red"/><circle cx="48" cy="3" r="0.5" fill="red"/><circle cx="37" cy="4" r="0.5" fill="red"/><circle cx="26" cy="0" r="0.5" fill="red"/><circle cx="37" cy="5" r="0.5" fill="red"/><circle cx="40" cy="1" r="0.5" fill="red"/><circle cx="42" cy="9" r="0.5" fill="red"/><circle cx="61" cy="3" r="0.5" fill="red"/><circle cx="34" cy="5" r="0.5" fill="red"/><circle cx="40" cy="8" r="0.5" fill="red"/><circle cx="37" cy="9" r="0.5" fill="red"/><circle cx="56" cy="1" r="0.5" fill="red"/><circle cx="4" cy="6" r="0.5" fill="red"/><circle cx="5" cy="2" r="0.5" fill="red"/><circle cx="26" cy="5" r="0.5" fill="red"/><circle cx="28" cy="3" r="0.5" fill="red"/><circle cx="27" cy="4" r="0.5" fill="red"/><circle cx="44" cy="0" r="0.5" fill="red"/><circle cx="37" cy="3" r="0.5" fill="red"/><circle cx="32" cy="6" r="0.5" fill="red"/><circle cx="8" cy="4" r="0.5" fill="red"/><circle cx="25" cy="0" r="0.5" fill="red"/><circle cx="5" cy="3" r="0.5" fill="red"/><circle cx="49" cy="0" r="0.5" fill="red"/><circle cx="58" cy="4" r="0.5" fill="red"/><circle cx="41" cy="0" r="0.5" fill="red"/><circle cx="19" cy="9" r="0.5" fill="red"/><circle cx="28" cy="9" r="0.5" fill="red"/><circle cx="43" cy="9" r="0.5" fill="red"/><circle cx="20" cy="9" r="0.5" fill="red"/><circle cx="21" cy="1" r="0.5" fill="red"/><circle cx="34" cy="0" r="0.5" fill="red"/><circle cx="2" cy="4" r="0.5" fill="red"/><circle cx="27" cy="4" r="0.5" fill="red"/><circle cx="12" cy="0" r="0.5" fill="red"/><circle cx="32" cy="3" r="0.5" fill="red"/><circle cx="32" cy="5" r="0.5" fill="red"/><circle cx="16" cy="3" r="0.5" fill="red"/><circle cx="49" cy="4" r="0.5" fill="red"/><circle cx="0" cy="5" r="0.5" fill="red"/><circle cx="8" cy="9" r="0.5" fill="red"/><circle cx="4" cy="0" r="0.5" fill="red"/><circle cx="56" cy="3" r="0.5" fill="red"/><circle cx="40" cy="5" r="0.5" fill="red"/><circle cx="42" cy="4" r="0.5" fill="red"/><circle cx="12" cy="0" r="0.5" fill="red"/><circle cx="29" cy="0" r="0.5" fill="red"/><circle cx="40" cy="2" r="0.5" fill="red"/><circle cx="25" cy="6" r="0.5" fill="red"/><circle cx="21" cy="1" r="0.5" fill="red"/><circle cx="1" cy="4" r="0.5" fill="red"/><circle cx="35" cy="0" r="0.5" fill="red"/><circle cx="57" cy="0" r="0.5" fill="red"/><circle cx="43" cy="9" r="0.5" fill="red"/><circle cx="41" cy="0" r="0.5" fill="red"/><circle cx="44" cy="4" r="0.5" fill="red"/><circle cx="11" cy="0" r="0.5" fill="red"/><circle cx="57" cy="4" r="0.5" fill="red"/><circle cx="26" cy="5" r="0.5" fill="red"/><circle cx="8" cy="3" r="0.5" fill="red"/><circle cx="53" cy="2" r="0.5" fill="red"/><circle cx="52" cy="0" r="0.5" fill="red"/><circle cx="50" cy="0" r="0.5" fill="red"/><circle cx="56" cy="4" r="0.5" fill="red"/><circle cx="48" cy="3" r="0.5" fill="red"/><circle cx="9" cy="4" r="0.5" fill="red"/><circle cx="29" cy="9" r="0.5" fill="red"/><circle cx="8" cy="1" r="0.5" fill="red"/><circle cx="56" cy="0" r="0.5" fill="red"/><circle cx="5" cy="2" r="0.5" fill="red"/><circle cx="0" cy="2" r="0.5" fill="red"/><circle cx="24" cy="7" r="0.5" fill="red"/><circle cx="11" cy="4" r="0.5" fill="red"/><circle cx="44" cy="4" r="0.5" fill="red"/><circle cx="48" cy="5" r="0.5" fill="red"/><circle cx="42" cy="0" r="0.5" fill="red"/><circle cx="1" cy="4" r="0.5" fill="red"/><circle cx="32" cy="5" r="0.5" fill="red"/><circle cx="0" cy="1" r="0.5" fill="red"/><circle cx="56" cy="8" r="0.5" fill="red"/><circle cx="8" cy="4" r="0.5" fill="red"/><circle cx="3" cy="0" r="0.5" fill="red"/><circle cx="41" cy="9" r="0.5" fill="red"/><circle cx="10" cy="9" r="0.5" fill="red"/><circle cx="41" cy="9" r="0.5" fill="red"/><circle cx="13" cy="6" r="0.5" fill="red"/><circle cx="5" cy="9" r="0.5" fill="red"/><circle cx="0" cy="5" r="0.5" fill="red"/><circle cx="56" cy="5" r="0.5" fill="red"/><circle cx="27" cy="9" r="0.5" fill="red"/><circle cx="8" cy="1" r="0.5" fill="red"/><circle cx="0" cy="0" r="0.5" fill="red"/><circle cx="2" cy="4" r="0.5" fill="red"/><circle cx="48" cy="2" r="0.5" fill="red"/><circle cx="0" cy="1" r="0.5" fill="red"/><circle cx="13" cy="6" r="0.5" fill="red"/><circle cx="8" cy="0" r="0.5" fill="red"/><circle cx="28" cy="0" r="0.5" fill="red"/><circle cx="29" cy="0" r="0.5" fill="red"/><circle cx="61" cy="3" r="0.5" fill="red"/><circle cx="50" cy="4" r="0.5" fill="red"/><circle cx="56" cy="0" r="0.5" fill="red"/><circle cx="5" cy="1" r="0.5" fill="red"/><circle cx="17" cy="9" r="0.5" fill="red"/><circle cx="37" cy="6" r="0.5" fill="red"/><circle cx="27" cy="0" r="0.5" fill="red"/><circle cx="13" cy="3" r="0.5" fill="red"/><circle cx="35" cy="5" r="0.5" fill="red"/><circle cx="59" cy="4" r="0.5" fill="red"/><circle cx="10" cy="0" r="0.5" fill="red"/><circle cx="16" cy="3" r="0.5" fill="red"/><circle cx="21" cy="8" r="0.5" fill="red"/><circle cx="45" cy="9" r="0.5" fill="red"/><circle cx="40" cy="2" r="0.5" fill="red"/><circle cx="60" cy="0" r="0.5" fill="red"/><circle cx="3" cy="4" r="0.5" fill="red"/><circle cx="32" cy="6" r="0.5" fill="red"/><circle cx="48" cy="6" r="0.5" fill="red"/><circle cx="45" cy="9" r="0.5" fill="red"/><circle cx="20" cy="9" r="0.5" fill="red"/><circle cx="53" cy="1" r="0.5" fill="red"/><circle cx="0" cy="3" r="0.5" fill="red"/><circle cx="40" cy="6" r="0.5" fill="red"/><circle cx="10" cy="4" r="0.5" fill="red"/><circle cx="56" cy="6" r="0.5" fill="red"/><circle cx="37" cy="5" r="0.5" fill="red"/><circle cx="2" cy="0" r="0.5" fill="red"/><circle cx="40" cy="9" r="0.5" fill="red"/><circle cx="21" cy="1" r="0.5" fill="red"/><circle cx="9" cy="4" r="0.5" fill="red"/><circle cx="32" cy="9" r="0.5" fill="red"/><circle cx="13" cy="5" r="0.5" fill="red"/><circle cx="25" cy="6" r="0.5" fill="red"/><circle cx="18" cy="0" r="0.5" fill="red"/><circle cx="35" cy="5" r="0.5" fill="red"/><circle cx="59" cy="4" r="0.5" fill="red"/><circle cx="17" cy="9" r="0.5" fill="red"/><circle cx="37" cy="7" r="0.5" fill="red"/><circle cx="19" cy="9" r="0.5" fill="red"/><circle cx="43" cy="0" r="0.5" fill="red"/><circle cx="56" cy="7" r="0.5" fill="red"/><circle cx="24" cy="8" r="0.5" fill="red"/><circle cx="0" cy="9" r="0.5" fill="red"/><circle cx="24" cy="0" r="0.5" fill="red"/><circle cx="42" cy="0" r="0.5" fill="red"/><circle cx="42" cy="4" r="0.5" fill="red"/><circle cx="16" cy="1" r="0.5" fill="red"/><circle cx="8" cy="1" r="0.5" fill="red"/><circle cx="16" cy="7" r="0.5" fill="red"/><circle cx="57" cy="4" r="0.5" fill="red"/><circle cx="16" cy="8" r="0.5" fill="red"/><circle cx="60" cy="0" r="0.5" fill="red"/><circle cx="40" cy="5" r="0.5" fill="red"/><circle cx="8" cy="5" r="0.5" fill="red"/><circle cx="53" cy="3" r="0.5" fill="red"/><circle cx="13" cy="5" r="0.5" fill="red"/><circle cx="25" cy="0" r="0.5" fill="red"/><circle cx="32" cy="2" r="0.5" fill="red"/><circle cx="52" cy="4" r="0.5" fill="red"/><circle cx="32" cy="9" r="0.5" fill="red"/><circle cx="24" cy="7" r="0.5" fill="red"/><circle cx="37" cy="2" r="0.5" fill="red"/><circle cx="34" cy="5" r="0.5" fill="red"/><circle cx="8" cy="5" r="0.5" fill="red"/><circle cx="0" cy="7" r="0.5" fill="red"/><circle cx="8" cy="2" r="0.5" fill="red"/><circle cx="20" cy="0" r="0.5" fill="red"/><circle cx="8" cy="7" r="0.5" fill="red"/><circle cx="40" cy="3" r="0.5" fill="red"/><circle cx="9" cy="9" r="0.5" fill="red"/><circle cx="18" cy="9" r="0.5" fill="red"/><circle cx="33" cy="5" r="0.5" fill="red"/><circle cx="17" cy="0" r="0.5" fill="red"/><circle cx="12" cy="4" r="0.5" fill="red"/><circle cx="28" cy="3" r="0.5" fill="red"/><circle cx="5" cy="1" r="0.5" fill="red"/><circle cx="40" cy="2" r="0.5" fill="red"/><circle cx="0" cy="4" r="0.5" fill="red"/><circle cx="56" cy="2" r="0.5" fill="red"/><circle cx="0" cy="5" r="0.5" fill="red"/><circle cx="48" cy="6" r="0.5" fill="red"/><circle cx="37" cy="8" r="0.5" fill="red"/><circle cx="40" cy="4" r="0.5" fill="red"/><circle cx="33" cy="1" r="0.5" fill="red"/><circle cx="50" cy="0" r="0.5" fill="red"/><circle cx="8" cy="8" r="0.5" fill="red"/><circle cx="56" cy="8" r="0.5" fill="red"/><circle cx="45" cy="0" r="0.5" fill="red"/><circle cx="9" cy="0" r="0.5" fill="red"/><circle cx="16" cy="6" r="0.5" fill="red"/><circle cx="9" cy="9" r="0.5" fill="red"/><circle cx="8" cy="7" r="0.5" fill="red"/><circle cx="56" cy="7" r="0.5" fill="red"/><circle cx="8" cy="3" r="0.5" fill="red"/><circle cx="25" cy="6" r="0.5" fill="red"/><circle cx="13" cy="1" r="0.5" fill="red"/><circle cx="33" cy="5" r="0.5" fill="red"/><circle cx="8" cy="3" r="0.5" fill="red"/><circle cx="50" cy="0" r="0.5" fill="red"/><circle cx="32" cy="8" r="0.5" fill="red"/><circle cx="20" cy="0" r="0.5" fill="red"/><circle cx="37" cy="4" r="0.5" fill="red"/><circle cx="49" cy="4" r="0.5" fill="red"/><circle cx="4" cy="6" r="0.5" fill="red"/><circle cx="43" cy="9" r="0.5" fill="red"/><circle cx="40" cy="0" r="0.5" fill="red"/><circle cx="32" cy="7" r="0.5" fill="red"/><circle cx="49" cy="0" r="0.5" fill="red"/><circle cx="29" cy="1" r="0.5" fill="red"/><circle cx="40" cy="4" r="0.5" fill="red"/><circle cx="26" cy="5" r="0.5" fill="red"/><circle cx="56" cy="1" r="0.5" fill="red"/><circle cx="48" cy="3" r="0.5" fill="red"/><circle cx="5" cy="8" r="0.5" fill="red"/><circle cx="19" cy="0" r="0.5" fill="red"/><circle cx="37" cy="9" r="0.5" fill="red"/><circle cx="56" cy="5" r="0.5" fill="red"/><circle cx="51" cy="0" r="0.5" fill="red"/><circle cx="56" cy="9" r="0.5" fill="red"/><circle cx="8" cy="9" r="0.5" fill="red"/><circle cx="48" cy="4" r="0.5" fill="red"/><circle cx="25" cy="9" r="0.5" fill="red"/><circle cx="2" cy="0" r="0.5" fill="red"/><circle cx="13" cy="3" r="0.5" fill="red"/><circle cx="60" cy="0" r="0.5" fill="red"/><circle cx="40" cy="4" r="0.5" fill="red"/><circle cx="56" cy="3" r="0.5" fill="red"/><circle cx="48" cy="7" r="0.5" fill="red"/><circle cx="16" cy="6" r="0.5" fill="red"/><circle cx="25" cy="9" r="0.5" fill="red"/><circle cx="36" cy="5" r="0.5" fill="red"/><circle cx="9" cy="9" r="0.5" fill="red"/><circle cx="5" cy="1" r="0.5" fill="red"/><circle cx="48" cy="0" r="0.5" fill="red"/><circle cx="43" cy="0" r="0.5" fill="red"/><circle cx="13" cy="8" r="0.5" fill="red"/><circle cx="48" cy="0" r="0.5" fill="red"/><circle cx="50" cy="4" r="0.5" fill="red"/><circle cx="35" cy="0" r="0.5" fill="red"/><circle cx="34" cy="0" r="0.5" fill="red"/><circle cx="8" cy="6" r="0.5" fill="red"/><circle cx="61" cy="2" r="0.5" fill="red"/><circle cx="41" cy="0" r="0.5" fill="red"/><circle cx="16" cy="8" r="0.5" fill="red"/><circle cx="56" cy="8" r="0.5" fill="red"/><circle cx="8" cy="5" r="0.5" fill="red"/><circle cx="4" cy="7" r="0.5" fill="red"/><circle cx="34" cy="0" r="0.5" fill="red"/><circle cx="4" cy="4" r="0.5" fill="red"/><circle cx="44" cy="9" r="0.5" fill="red"/><circle cx="20" cy="0" r="0.5" fill="red"/><circle cx="37" cy="8" r="0.5" fill="red"/><circle cx="48" cy="2" r="0.5" fill="red"/><circle cx="0" cy="6" r="0.5" fill="red"/><circle cx="10" cy="4" r="0.5" fill="red"/><circle cx="48" cy="5" r="0.5" fill="red"/><circle cx="16" cy="2" r="0.5" fill="red"/><circle cx="61" cy="1" r="0.5" fill="red"/><circle cx="33" cy="1" r="0.5" fill="red"/><circle cx="0" cy="8" r="0.5" fill="red"/><circle cx="1" cy="0" r="0.5" fill="red"/><circle cx="24" cy="9" r="0.5" fill="red"/><circle cx="0" cy="7" r="0.5" fill="red"/><circle cx="28" cy="9" r="0.5" fill="red"/><circle cx="8" cy="7" r="0.5" fill="red"/><circle cx="16" cy="1" r="0.5" fill="red"/><circle cx="49" cy="4" r="0.5" fill="red"/><circle cx="56" cy="2" r="0.5" fill="red"/><circle cx="50" cy="4" r="0.5" fill="red"/><circle cx="4" cy="0" r="0.5" fill="red"/><circle cx="8" cy="0" r="0.5" fill="red"/><circle cx="34" cy="5" r="0.5" fill="red"/><circle cx="3" cy="5" r="0.5" fill="red"/><circle cx="32" cy="4" r="0.5" fill="red"/><circle cx="13" cy="2" r="0.5" fill="red"/><circle cx="48" cy="1" r="0.5" fill="red"/><circle cx="43" cy="4" r="0.5" fill="red"/><circle cx="43" cy="0" r="0.5" fill="red"/><circle cx="13" cy="2" r="0.5" fill="red"/><circle cx="21" cy="8" r="0.5" fill="red"/><circle cx="8" cy="4" r="0.5" fill="red"/><circle cx="56" cy="6" r="0.5" fill="red"/><circle cx="24" cy="9" r="0.5" fill="red"/><circle cx="42" cy="9" r="0.5" fill="red"/><circle cx="60" cy="4" r="0.5" fill="red"/><circle cx="40" cy="7" r="0.5" fill="red"/><circle cx="5" cy="3" r="0.5" fill="red"/><circle cx="17" cy="9" r="0.5" fill="red"/><circle cx="32" cy="9" r="0.5" fill="red"/><circle cx="0" cy="0" r="0.5" fill="red"/><circle cx="12" cy="4" r="0.5" fill="red"/><circle cx="0" cy="9" r="0.5" fill="red"/><circle cx="16" cy="5" r="0.5" fill="red"/><circle cx="48" cy="4" r="0.5" fill="red"/><circle cx="0" cy="7" r="0.5" fill="red"/><circle cx="57" cy="0" r="0.5" fill="red"/><circle cx="0" cy="1" r="0.5" fill="red"/><circle cx="8" cy="8" r="0.5" fill="red"/><circle cx="44" cy="9" r="0.5" fill="red"/><circle cx="41" cy="4" r="0.5" fill="red"/><circle cx="27" cy="0" r="0.5" fill="red"/><circle cx="48" cy="8" r="0.5" fill="red"/><circle cx="56" cy="6" r="0.5" fill="red"/><circle cx="5" cy="2" r="0.5" fill="red"/><circle cx="13" cy="3" r="0.5" fill="red"/><circle cx="37" cy="4" r="0.5" fill="red"/><circle cx="40" cy="1" r="0.5" fill="red"/><circle cx="0" cy="2" r="0.5" fill="red"/><circle cx="53" cy="1" r="0.5" fill="red"/><circle cx="8" cy="9" r="0.5" fill="red"/><circle cx="16" cy="4" r="0.5" fill="red"/><circle cx="48" cy="9" r="0.5" fill="red"/><circle cx="13" cy="5" r="0.5" fill="red"/><circle cx="12" cy="9" r="0.5" fill="red"/><circle cx="48" cy="9" r="0.5" fill="red"/><circle cx="27" cy="9" r="0.5" fill="red"/><circle cx="48" cy="0" r="0.5" fill="red"/><circle cx="16" cy="6" r="0.5" fill="red"/><circle cx="58" cy="0" r="0.5" fill="red"/><circle cx="2" cy="4" r="0.5" fill="red"/><circle cx="3" cy="0" r="0.5" fill="red"/><circle cx="48" cy="5" r="0.5" fill="red"/><circle cx="3" cy="5" r="0.5" fill="red"/><circle cx="48" cy="9" r="0.5" fill="red"/><circle cx="13" cy="6" r="0.5" fill="red"/><circle cx="29" cy="2" r="0.5" fill="red"/><circle cx="0" cy="9" r="0.5" fill="red"/><circle cx="56" cy="9" r="0.5" fill="red"/><circle cx="56" cy="0" r="0.5" fill="red"/><circle cx="57" cy="0" r="0.5" fill="red"/><circle cx="53" cy="1" r="0.5" fill="red"/><circle cx="1" cy="0" r="0.5" fill="red"/><circle cx="16" cy="3" r="0.5" fill="red"/><circle cx="37" cy="9" r="0.5" fill="red"/></svg>